<?xml version="1.0" encoding="utf-8"?>
<!-- Generator: Adobe Illustrator 15.1.0, SVG Export Plug-In  -->
<!DOCTYPE svg PUBLIC "-//W3C//DTD SVG 1.0//EN" "http://www.w3.org/TR/2001/REC-SVG-20010904/DTD/svg10.dtd" [
	<!ENTITY ns_flows "http://ns.adobe.com/Flows/1.0/">
]>
<svg version="1.0"
	 xmlns="http://www.w3.org/2000/svg" xmlns:xlink="http://www.w3.org/1999/xlink" xmlns:a="http://ns.adobe.com/AdobeSVGViewerExtensions/3.0/"
	 x="0px" y="0px" width="200px" height="37px" viewBox="-10.245 -1.389 200 37"
	 overflow="visible" enable-background="new -10.245 -1.389 200 37" xml:space="preserve">
<defs>
</defs>
<path fill="#4F70A4" d="M40.59,7.672c-1.171,0-2.154,0.454-3.212,0.983c-0.34,0.189-1.021,0.604-1.437,0.604
	c-1.096,0-2.154-1.814-4.8-1.55c-5.821,0.529-10.054,6.879-10.356,13.682c-0.151,3.062,1.285,6.123,4.763,6.123
	c3.893,0,5.745-3.401,6.728-3.401c1.209,0-0.416,3.213,2.948,3.213c2.079,0,7.597-2.192,7.597-4.649
	c0-0.604-0.378-0.869-0.945-0.944c-0.416-0.038-0.68,0-0.832-0.454c-0.227-0.604-0.076-1.814-0.038-2.419
	c0.302-4.082,0.982-7.483,1.134-9.751C42.215,8.05,41.648,7.672,40.59,7.672z M30.083,21.582c-0.756,0.075-0.869-0.907-0.869-1.475
	c-0.038-2.419,2.495-8.05,4.498-8.201c0.605-0.038,0.756,0.718,0.756,1.209C34.542,15.005,32.086,21.43,30.083,21.582z
	 M11.944,13.379c0.982,0,1.021,1.437,1.058,2.117c0.038,0.643-0.756,8.013-3.099,8.013c-0.68,0-0.756-0.756-0.832-1.285
	C8.958,21.582,9.79,13.379,11.944,13.379z M11.226,3.212C11.377,1.096,11.642,0,9.336,0C7.71,0,4.347,0.831,2.797,1.398
	C1.474,1.852,0,2.381,0,4.006C0,5.329,0.454,5.405,1.588,5.48c1.134,0.076,1.134,0.454,1.134,1.512c0,2.948-0.492,6.387-0.945,9.298
	c-0.303,1.814-0.87,4.573-0.87,6.349c0,3.742,3.855,4.838,6.955,4.876c8.504,0.113,13.191-5.896,13.645-13.38
	c0.189-3.25-1.285-6.689-5.065-6.689c-3.062,0-4.687,2.834-5.405,2.834c-0.34,0-0.454-0.378-0.454-0.68
	c0-1.323,0.265-2.684,0.378-3.969L11.226,3.212z"/>
<path fill="#4F70A4" d="M57.557,21.279c-1.172,0.681-2.419,1.323-3.817,1.323c-1.625,0-1.852-1.89-1.852-3.1
	c-0.113-1.701,0.643-7.861,2.986-7.824c0.378,0,0.68,0.302,0.68,0.68c0,0.643-0.643,1.512-0.643,2.533
	c0,1.436,1.55,2.267,2.797,2.267c2.381,0,4.498-2.267,4.422-4.648c-0.113-3.515-3.288-5.027-6.35-5.027
	c-6.879,0-13.191,5.896-13.191,12.888c0,5.064,3.59,7.144,8.239,7.144c2.684,0,4.989-0.681,7.295-1.965
	c1.058-0.567,2.759-1.626,2.759-2.986c0-0.831-0.491-2.079-1.474-2.079C58.729,20.485,58.124,20.939,57.557,21.279z"/>
<path fill="#4F70A4" d="M70.443,18.331c-0.227,0-0.227-0.265-0.227-0.415c0-1.55,1.739-4.914,3.515-4.914
	c0.604,0,0.869,0.492,0.869,1.059C74.6,16.025,71.803,18.331,70.443,18.331z M72.068,3.779c0.076-0.643,0.227-1.625,0.227-2.23
	C72.294,0.264,71.69,0,70.518,0c-2.079,0-9.6,0.907-9.449,4.233c0.038,0.983,0.34,1.021,1.247,0.945
	c1.285-0.113,1.398,0.34,1.398,1.587c0,4.951-1.663,12.511-2.419,16.895c-0.113,0.567-0.151,1.135-0.151,1.701
	c0,1.588,0.982,2.116,2.646,1.966c5.253-0.416,5.669-1.513,5.972-4.838c0.038-0.454,0.265-1.513,0.87-1.513
	c0.529,0,1.171,1.928,1.36,2.42c0.718,1.89,1.096,3.968,3.478,3.968c1.89,0,7.105-1.587,7.105-3.968c0-0.832-0.34-0.907-1.021-1.21
	c-0.529-0.265-0.567-0.303-0.945-0.831l-1.701-2.722c-0.113-0.189-0.378-0.604-0.378-0.756c0-0.303,0.756-0.529,0.945-0.643
	c2.041-1.059,3.779-2.608,3.779-5.103c0-3.099-1.776-4.687-4.8-4.687c-2.23,0-3.817,0.982-5.556,2.23
	c-0.265,0.189-0.832,0.642-1.172,0.642c-0.643,0-0.378-1.285-0.34-1.512L72.068,3.779z"/>
<path fill="#4F70A4" d="M85.293,27.137c-0.151,1.059-0.189,1.512-1.021,2.192c-0.605,0.491-0.983,0.794-0.983,1.625
	c0,2.91,6.123,3.213,8.164,3.213c1.36,0,4.12-0.189,4.12-2.116c0-1.172-1.588-1.059-1.966-1.891
	c-0.227-0.491-0.718-3.137,0.34-3.137c0.303,0,0.605,0.113,0.983,0.227c0.415,0.151,0.831,0.265,1.322,0.265
	c6.274,0,9.865-7.295,9.865-12.737c0-3.175-1.323-7.143-5.103-7.143c-3.894,0-5.632,2.646-6.576,2.646
	c-0.605,0-0.719-0.529-0.719-0.983c-0.038-0.718-0.416-1.625-1.625-1.625c-1.285,0-4.158,1.398-5.443,1.965
	c-1.209,0.529-3.288,1.172-3.288,2.797c0,1.209,0.643,1.323,1.55,1.361c0.416,0.038,0.907,0.076,1.096,0.491
	c0.264,0.567,0.264,1.55,0.264,2.192L85.293,27.137z M96.556,13.379c1.059,0,1.209,1.134,1.209,1.928
	c0,1.663-1.096,8.202-3.325,8.202c-0.794,0-0.907-0.492-0.907-1.172C93.533,20.712,94.326,13.379,96.556,13.379z"/>
<path fill="#4F70A4" d="M136.423,31.068c-1.134,0-4.044-0.227-4.044-1.852c0-0.189,0-0.643,0.302-0.681
	c0.756-0.038,3.78,0.756,6.729,0.34c0.415-0.075,0.831,0.114,0.831,0.605C140.241,30.841,137.331,31.068,136.423,31.068z
	 M138.654,17.916c-0.983,0-1.285-0.529-1.21-1.399c0.113-1.55,0.34-5.858,2.532-5.858c0.982,0,1.285,0.643,1.172,1.474
	C140.958,13.72,140.732,17.916,138.654,17.916z M137.86,22.942c-0.832,0-3.288,0.151-3.288-1.209c0-0.492,0.378-0.87,0.869-0.87
	c0.529,0,1.587,0.341,3.439,0.341c4.725,0,10.242-1.663,10.733-7.749c0.151-2.003-1.021-2.948-1.021-3.25
	c0-0.378,0.794-0.982,0.794-2.117c0-1.134-1.36-2.683-2.532-2.683c-1.437,0-1.474,2.457-3.515,2.457
	c-0.643,0-1.285-0.076-1.928-0.151c-0.643-0.075-1.285-0.151-1.928-0.151c-4.573,0-10.621,2.457-10.621,7.861
	c0,1.853,0.643,2.91,2.004,4.082c0.265,0.227,0.453,0.303,0.453,0.681c0,0.491-0.453,0.566-0.831,0.718
	c-1.475,0.604-2.76,1.776-2.76,3.478c0,1.89,1.398,2.494,1.398,2.985c0,0.529-1.058,0.756-1.058,2.154
	c0,3.704,6.16,4.271,8.844,4.271c4.195,0,11.036-1.588,11.036-6.879c0-2.797-2.191-4.12-4.762-4.12L137.86,22.942z M125.504,7.672
	c-1.172,0-2.154,0.454-3.213,0.983c-0.34,0.189-1.021,0.604-1.437,0.604c-1.096,0-2.154-1.814-4.8-1.55
	c-5.82,0.529-10.054,6.879-10.356,13.682c-0.151,3.062,1.285,6.123,4.763,6.123c3.893,0,5.745-3.401,6.728-3.401
	c1.209,0-0.416,3.213,2.948,3.213c2.079,0,7.597-2.192,7.597-4.649c0-0.604-0.378-0.869-0.944-0.944
	c-0.416-0.038-0.681,0-0.832-0.454c-0.227-0.604-0.075-1.814-0.038-2.419c0.303-4.082,0.983-7.483,1.135-9.751
	C127.129,8.05,126.562,7.672,125.504,7.672z M114.997,21.582c-0.756,0.075-0.869-0.907-0.869-1.475
	c-0.038-2.419,2.494-8.05,4.498-8.201c0.604-0.038,0.756,0.718,0.756,1.209C119.457,15.005,117,21.43,114.997,21.582z"/>
<path fill="#4F70A4" d="M161.063,11.225c0.604,0,0.832,0.681,0.869,1.172c0.113,1.814-1.738,4.611-2.797,4.611
	c-0.529,0-0.68-0.605-0.68-1.059C158.456,14.74,159.513,11.225,161.063,11.225z M163.86,7.483c-6.879,0-14.211,5.103-14.552,12.964
	c-0.188,5.064,3.817,7.067,8.429,7.067c2.382,0,4.422-0.566,6.539-1.512c1.55-0.718,4.082-1.966,4.082-3.969
	c0-0.756-0.719-1.587-1.512-1.587c-1.21,0-3.288,2.154-6.01,2.154c-0.945,0-2.306-0.605-2.306-1.701
	c0-0.794,0.945-0.794,1.474-0.794c4.271,0,9.374-3.553,9.374-8.126C169.378,8.655,166.846,7.483,163.86,7.483z"/>
</svg>
